<svg xmlns="http://www.w3.org/2000/svg" viewBox="0 0 64 64" role="img" aria-label="LA ESPERANZA">
  <rect width="64" height="64" rx="14" fill="#0B0908"/>
  <path d="M28 13h8v7h-8z" fill="#D6B25E"/>
  <path d="M24 20h16v6H24z" fill="#B68A35"/>
  <path d="M20 28c0-4.4 3.6-8 8-8h8c4.4 0 8 3.6 8 8v18c0 4.4-3.6 8-8 8h-8c-4.4 0-8-3.6-8-8V28z" fill="#15100D" stroke="#D6B25E" stroke-width="3"/>
  <path d="M25 34h14v3H25zM25 41h10v3H25z" fill="#D6B25E"/>
  <path d="M45 16c4 1.6 6.4 4.5 7 8.8" fill="none" stroke="#D6B25E" stroke-width="3" stroke-linecap="round"/>
</svg>
